#!OML:ASF X:\für Bonn\!DataBase\2005_08_10_Bjorn_Final\c3d\bjorn.ASF
:FULLY-SPECIFIED
:DEGREES
157
root 10.2816 7.843 0.478224 -244.281 84.6426 -231.962
lowerback 44.171 -4.89136 10.1272
upperback 22.8717 2.57495 2.55465
thorax 5.48706 4.0265 -2.8902
lowerneck -7.05861 -9.27428 3.68093
upperneck 11.043 -12.5936 -1.00579
head 4.61684 -6.01972 -1.71927
rclavicle -6.04305e-014 -3.49861e-014
rhumerus 20.8145 -15.7288 -72.9756
rradius 22.486
rwrist 12.7767
rhand -49.281 42.6032
rfingers 7.12502
rthumb -21.8988 13.8225
lclavicle -6.04305e-014 -3.49861e-014
lhumerus -0.0576034 -42.9772 76.0511
lradius 40.1961
lwrist -13.6482
lhand -20.8191 -12.5337
lfingers 7.12502
lthumb 5.54899 17.3737
rfemur -171.987 67.4164 73.7234
rtibia 207.41
rfoot -193.029 93.6774
rtoes -8.15257
lfemur -99.0695 68.9435 -32.8534
ltibia 152.447
lfoot -34.8566 -29.8246
ltoes -22.6797
158
root 10.2891 7.84608 0.467663 -244.167 84.6754 -231.934
lowerback 44.135 -4.91384 10.1791
upperback 22.8627 2.5593 2.61161
thorax 5.48567 4.01492 -2.84959
lowerneck -6.9056 -9.2651 3.70083
upperneck 10.9101 -12.5721 -1.03263
head 4.53442 -6.01458 -1.71352
rclavicle 1.27222e-014 4.77083e-015
rhumerus 20.6826 -15.7787 -72.983
rradius 22.4756
rwrist 12.8798
rhand -49.3938 42.9426
rfingers 7.12502
rthumb -22.0072 14.1746
lclavicle 1.27222e-014 4.77083e-015
lhumerus -0.536778 -43.3146 76.3618
lradius 40.3597
lwrist -13.2256
lhand -20.9722 -12.4201
lfingers 7.12502
lthumb 5.40118 17.4911
rfemur -171.564 67.489 74.181
rtibia 207.471
rfoot -196.589 93.7418
rtoes -7.96686
lfemur -99.2408 68.9082 -33.0923
ltibia 152.487
lfoot -34.8949 -29.6276
ltoes -22.7313
159
root 10.2953 7.8496 0.457631 -244.1 84.6799 -231.926
lowerback 44.1458 -4.94595 10.2093
upperback 22.8489 2.53341 2.65334
thorax 5.46504 3.99779 -2.81232
lowerneck -6.82645 -9.24924 3.71534
upperneck 10.8355 -12.5442 -1.06826
head 4.48833 -6.00481 -1.71722
rclavicle -2.54444e-014 -1.27222e-014
rhumerus 20.5909 -15.9051 -73.0435
rradius 22.4292
rwrist 13.0946
rhand -49.4374 43.2268
rfingers 7.12502
rthumb -22.0491 14.4638
lclavicle -2.54444e-014 -1.27222e-014
lhumerus -1.04135 -43.6608 76.6224
lradius 40.5682
lwrist -12.7783
lhand -21.1015 -12.3975
lfingers 7.12502
lthumb 5.27636 17.5168
rfemur -171.187 67.5395 74.573
rtibia 207.53
rfoot -198.369 93.7689
rtoes -8.05072
lfemur -99.2313 68.7195 -33.1799
ltibia 152.511
lfoot -34.7641 -29.5027
ltoes -22.6318
160
root 10.3015 7.8534 0.447531 -244.009 84.7095 -231.903
lowerback 44.1332 -4.96848 10.2638
upperback 22.8445 2.5247 2.69797
thorax 5.46464 3.99284 -2.78795
lowerneck -6.72791 -9.24108 3.7834
upperneck 10.7219 -12.5318 -1.10431
head 4.42013 -6.00204 -1.72715
rclavicle -1.33583e-013 -9.06458e-014
rhumerus 20.4797 -16.012 -73.0687
rradius 22.4206
rwrist 13.2366
rhand -49.5173 43.5578
rfingers 7.12502
rthumb -22.1257 14.8038
lclavicle -1.33583e-013 -9.06458e-014
lhumerus -1.50642 -43.9817 76.8803
lradius 40.7194
lwrist -12.355
lhand -21.2736 -12.5004
lfingers 7.12502
lthumb 5.11016 17.418
rfemur -170.876 67.5946 74.9273
rtibia 207.587
rfoot -200.382 93.8031
rtoes -7.96722
lfemur -99.2964 68.5726 -33.302
ltibia 152.538
lfoot -34.7537 -29.3257
ltoes -22.7244
161
root 10.3071 7.85736 0.43699 -244.005 84.7209 -231.976
lowerback 44.1186 -4.99658 10.3036
upperback 22.8393 2.50294 2.739
thorax 5.46162 3.97977 -2.75655
lowerneck -6.62054 -9.23766 3.77106
upperneck 10.6287 -12.5185 -1.11747
head 4.36494 -5.99982 -1.71726
rclavicle -4.45278e-014 -1.00187e-013
rhumerus 20.3784 -16.0323 -73.043
rradius 22.4051
rwrist 13.2758
rhand -49.579 43.8286
rfingers 7.12502
rthumb -22.185 15.0816
lclavicle -4.45278e-014 -1.00187e-013
lhumerus -1.99116 -44.249 77.162
lradius 40.8741
lwrist -11.924
lhand -21.425 -12.6696
lfingers 7.12502
lthumb 4.96403 17.2522
rfemur -170.462 67.6555 75.3646
rtibia 207.647
rfoot -204.752 93.8769
rtoes -7.63309
lfemur -99.3423 68.3935 -33.4528
ltibia 152.549
lfoot -34.6521 -29.1954
ltoes -22.6332
